<svg width="145" height="337" viewBox="0 0 145 337" fill="none" xmlns="http://www.w3.org/2000/svg">
<circle cx="6.5" cy="6.5" r="6.5" fill="#000033" fill-opacity="0.15"/>
<circle cx="6.5" cy="42.5" r="6.5" fill="#000033" fill-opacity="0.15"/>
<circle cx="6.5" cy="78.5" r="6.5" fill="#000033" fill-opacity="0.15"/>
<circle cx="6.5" cy="114.5" r="6.5" fill="#000033" fill-opacity="0.15"/>
<circle cx="6.5" cy="150.5" r="6.5" fill="#000033" fill-opacity="0.15"/>
<circle cx="6.5" cy="186.5" r="6.5" fill="#000033" fill-opacity="0.15"/>
<circle cx="6.5" cy="222.5" r="6.5" fill="#000033" fill-opacity="0.15"/>
<circle cx="6.5" cy="258.5" r="6.5" fill="#000033" fill-opacity="0.15"/>
<circle cx="6.5" cy="294.5" r="6.5" fill="#000033" fill-opacity="0.15"/>
<circle cx="6.5" cy="330.5" r="6.5" fill="#000033" fill-opacity="0.15"/>
<circle cx="28.5" cy="6.5" r="6.5" fill="#000033" fill-opacity="0.15"/>
<circle cx="28.5" cy="42.5" r="6.5" fill="#000033" fill-opacity="0.15"/>
<circle cx="28.5" cy="78.5" r="6.5" fill="#000033" fill-opacity="0.15"/>
<circle cx="28.5" cy="114.5" r="6.5" fill="#000033" fill-opacity="0.15"/>
<circle cx="28.5" cy="150.5" r="6.5" fill="#000033" fill-opacity="0.15"/>
<circle cx="28.5" cy="186.5" r="6.5" fill="#000033" fill-opacity="0.15"/>
<circle cx="28.5" cy="222.5" r="6.5" fill="#000033" fill-opacity="0.15"/>
<circle cx="28.5" cy="258.5" r="6.5" fill="#000033" fill-opacity="0.15"/>
<circle cx="28.5" cy="294.5" r="6.5" fill="#000033" fill-opacity="0.15"/>
<circle cx="28.5" cy="330.5" r="6.5" fill="#000033" fill-opacity="0.15"/>
<circle cx="50.5" cy="6.5" r="6.5" fill="#000033" fill-opacity="0.15"/>
<circle cx="50.5" cy="42.5" r="6.5" fill="#000033" fill-opacity="0.15"/>
<circle cx="50.5" cy="78.5" r="6.5" fill="#000033" fill-opacity="0.15"/>
<circle cx="50.5" cy="114.5" r="6.5" fill="#000033" fill-opacity="0.15"/>
<circle cx="50.5" cy="150.5" r="6.5" fill="#000033" fill-opacity="0.15"/>
<circle cx="50.5" cy="186.5" r="6.5" fill="#000033" fill-opacity="0.15"/>
<circle cx="50.5" cy="222.5" r="6.5" fill="#000033" fill-opacity="0.15"/>
<circle cx="50.5" cy="258.5" r="6.5" fill="#000033" fill-opacity="0.15"/>
<circle cx="50.5" cy="294.5" r="6.5" fill="#000033" fill-opacity="0.15"/>
<circle cx="50.5" cy="330.5" r="6.5" fill="#000033" fill-opacity="0.15"/>
<circle cx="72.5" cy="6.5" r="6.5" fill="#000033" fill-opacity="0.15"/>
<circle cx="72.5" cy="42.5" r="6.5" fill="#000033" fill-opacity="0.15"/>
<circle cx="72.5" cy="78.5" r="6.5" fill="#000033" fill-opacity="0.15"/>
<circle cx="72.5" cy="114.5" r="6.5" fill="#000033" fill-opacity="0.15"/>
<circle cx="72.5" cy="150.5" r="6.5" fill="#000033" fill-opacity="0.15"/>
<circle cx="72.5" cy="186.5" r="6.5" fill="#000033" fill-opacity="0.15"/>
<circle cx="72.5" cy="222.5" r="6.5" fill="#000033" fill-opacity="0.15"/>
<circle cx="72.5" cy="258.5" r="6.5" fill="#000033" fill-opacity="0.15"/>
<circle cx="72.5" cy="294.5" r="6.5" fill="#000033" fill-opacity="0.15"/>
<circle cx="72.5" cy="330.5" r="6.5" fill="#000033" fill-opacity="0.15"/>
<circle cx="94.5" cy="6.5" r="6.5" fill="#000033" fill-opacity="0.15"/>
<circle cx="94.5" cy="42.5" r="6.5" fill="#000033" fill-opacity="0.15"/>
<circle cx="94.5" cy="78.5" r="6.5" fill="#000033" fill-opacity="0.15"/>
<circle cx="94.5" cy="114.5" r="6.5" fill="#000033" fill-opacity="0.15"/>
<circle cx="94.5" cy="150.5" r="6.5" fill="#000033" fill-opacity="0.15"/>
<circle cx="94.5" cy="186.5" r="6.5" fill="#000033" fill-opacity="0.15"/>
<circle cx="94.5" cy="222.5" r="6.5" fill="#000033" fill-opacity="0.15"/>
<circle cx="94.5" cy="258.5" r="6.5" fill="#000033" fill-opacity="0.15"/>
<circle cx="94.5" cy="294.5" r="6.5" fill="#000033" fill-opacity="0.15"/>
<circle cx="94.5" cy="330.5" r="6.5" fill="#000033" fill-opacity="0.15"/>
<circle cx="116.5" cy="6.5" r="6.5" fill="#000033" fill-opacity="0.15"/>
<circle cx="116.5" cy="42.5" r="6.5" fill="#000033" fill-opacity="0.15"/>
<circle cx="116.5" cy="78.5" r="6.5" fill="#000033" fill-opacity="0.15"/>
<circle cx="116.5" cy="114.5" r="6.5" fill="#000033" fill-opacity="0.15"/>
<circle cx="116.5" cy="150.5" r="6.5" fill="#000033" fill-opacity="0.15"/>
<circle cx="116.5" cy="186.5" r="6.5" fill="#000033" fill-opacity="0.15"/>
<circle cx="116.5" cy="222.5" r="6.5" fill="#000033" fill-opacity="0.15"/>
<circle cx="116.5" cy="258.5" r="6.5" fill="#000033" fill-opacity="0.15"/>
<circle cx="116.5" cy="294.5" r="6.5" fill="#000033" fill-opacity="0.15"/>
<circle cx="116.5" cy="330.5" r="6.5" fill="#000033" fill-opacity="0.15"/>
<circle cx="138.5" cy="6.5" r="6.5" fill="#000033" fill-opacity="0.15"/>
<circle cx="138.5" cy="42.5" r="6.5" fill="#000033" fill-opacity="0.15"/>
<circle cx="138.5" cy="78.5" r="6.5" fill="#000033" fill-opacity="0.15"/>
<circle cx="138.5" cy="114.5" r="6.5" fill="#000033" fill-opacity="0.15"/>
<circle cx="138.5" cy="150.5" r="6.5" fill="#000033" fill-opacity="0.15"/>
<circle cx="138.5" cy="186.5" r="6.5" fill="#000033" fill-opacity="0.15"/>
<circle cx="138.5" cy="222.5" r="6.5" fill="#000033" fill-opacity="0.15"/>
<circle cx="138.5" cy="258.5" r="6.5" fill="#000033" fill-opacity="0.15"/>
<circle cx="138.5" cy="294.5" r="6.5" fill="#000033" fill-opacity="0.15"/>
<circle cx="138.5" cy="330.5" r="6.5" fill="#000033" fill-opacity="0.15"/>
</svg>
