<svg width="44" height="44" viewBox="0 0 44 44" fill="none" xmlns="http://www.w3.org/2000/svg">
<path d="M38.5 22C38.5 22.3647 38.3551 22.7144 38.0973 22.9723C37.8394 23.2301 37.4897 23.375 37.125 23.375H6.875C6.51033 23.375 6.16059 23.2301 5.90273 22.9723C5.64487 22.7144 5.5 22.3647 5.5 22C5.5 21.6353 5.64487 21.2856 5.90273 21.0277C6.16059 20.7699 6.51033 20.625 6.875 20.625H37.125C37.4897 20.625 37.8394 20.7699 38.0973 21.0277C38.3551 21.2856 38.5 21.6353 38.5 22ZM6.875 12.375H37.125C37.4897 12.375 37.8394 12.2301 38.0973 11.9723C38.3551 11.7144 38.5 11.3647 38.5 11C38.5 10.6353 38.3551 10.2856 38.0973 10.0277C37.8394 9.76987 37.4897 9.625 37.125 9.625H6.875C6.51033 9.625 6.16059 9.76987 5.90273 10.0277C5.64487 10.2856 5.5 10.6353 5.5 11C5.5 11.3647 5.64487 11.7144 5.90273 11.9723C6.16059 12.2301 6.51033 12.375 6.875 12.375ZM37.125 31.625H6.875C6.51033 31.625 6.16059 31.7699 5.90273 32.0277C5.64487 32.2856 5.5 32.6353 5.5 33C5.5 33.3647 5.64487 33.7144 5.90273 33.9723C6.16059 34.2301 6.51033 34.375 6.875 34.375H37.125C37.4897 34.375 37.8394 34.2301 38.0973 33.9723C38.3551 33.7144 38.5 33.3647 38.5 33C38.5 32.6353 38.3551 32.2856 38.0973 32.0277C37.8394 31.7699 37.4897 31.625 37.125 31.625Z" fill="black"/>
</svg>
