<svg width="66" height="53" viewBox="0 0 66 53" fill="none" xmlns="http://www.w3.org/2000/svg">
<path d="M34.5582 20.0287L39.3355 15.1912L37.5118 11.4979H27.6649L25.8407 15.1912L30.6185 20.0287C25.7732 20.9649 22.0977 25.2781 22.0977 30.4492C22.0977 36.3027 26.804 41.0638 32.5881 41.0638C38.3722 41.0638 43.0786 36.3027 43.0786 30.4492C43.0786 25.2781 39.403 20.9644 34.5582 20.0287ZM33.2686 17.7437H31.8997L31.1842 15.5746H33.9836L33.2686 17.7437ZM36.919 12.4519L37.9903 14.6211H35.049L34.6957 12.4519H36.919ZM34.9884 15.5746H37.6168L35.4733 17.7437H34.2734L34.9884 15.5746ZM31.4459 12.4519H33.7294L34.0827 14.6211H31.0867L31.4459 12.4519ZM28.2572 12.4519H30.4796L30.1204 14.6211H27.1859L28.2572 12.4519ZM27.558 15.5746H30.18L30.895 17.7437H29.6941L27.558 15.5746ZM32.5881 40.1098C27.3293 40.1098 23.0512 35.7759 23.0512 30.4492C23.0512 25.1224 27.3298 20.788 32.5881 20.788C37.8464 20.788 42.1246 25.1219 42.1246 30.4492C42.1246 35.7764 37.8469 40.1098 32.5881 40.1098Z" fill="black" fill-opacity="0.85"/>
<path d="M32.5881 21.8992C27.9281 21.8992 24.1362 25.7348 24.1362 30.4491C24.1362 35.1639 27.9281 38.9996 32.5881 38.9996C37.2482 38.9996 41.04 35.1644 41.04 30.4491C41.04 25.7348 37.2482 21.8992 32.5881 21.8992ZM32.5881 38.0456C28.4533 38.0456 25.0897 34.6376 25.0897 30.4491C25.0897 26.2606 28.4538 22.8527 32.5881 22.8527C36.7224 22.8527 40.086 26.2606 40.086 30.4491C40.086 34.6376 36.7229 38.0456 32.5881 38.0456Z" fill="black" fill-opacity="0.85"/>
<rect width="65.1049" height="53" rx="6.54321" fill="#029837" fill-opacity="0.1"/>
</svg>
